<svg width="38" height="38" viewBox="0 0 38 38" fill="none" xmlns="http://www.w3.org/2000/svg">
<rect x="0.5" y="0.5" width="37" height="37" rx="3.5" stroke="#9B63F8"/>
<path d="M17.1203 24.7682L14.5279 27.3606C13.4532 28.4353 11.7127 28.4353 10.6389 27.3608C9.56486 26.2867 9.56486 24.5461 10.6387 23.4723L15.8243 18.2867C16.8981 17.2128 18.6388 17.2128 19.7126 18.2867C20.0706 18.6447 20.651 18.6447 21.009 18.2867C21.367 17.9287 21.367 17.3483 21.009 16.9903C19.2192 15.2005 16.3178 15.2005 14.5279 16.9903L9.34237 22.1759C7.55254 23.9657 7.55254 26.8671 9.34237 28.6569C11.132 30.4477 14.0336 30.4477 15.8244 28.6569L18.4167 26.0645C18.7747 25.7066 18.7747 25.1262 18.4167 24.7682C18.0587 24.4102 17.4783 24.4102 17.1203 24.7682Z" fill="#9B63F8"/>
<path d="M28.6572 9.34237C26.8673 7.55254 23.965 7.55254 22.1752 9.34237L19.0649 12.4526C18.7069 12.8106 18.7069 13.391 19.0649 13.749C19.4229 14.107 20.0033 14.107 20.3613 13.749L23.4715 10.6387C24.5454 9.56486 26.2869 9.56486 27.3608 10.6387C28.4346 11.7126 28.4346 13.4532 27.3608 14.527L21.6573 20.2306C20.5834 21.3045 18.8428 21.3045 17.769 20.2306C17.411 19.8726 16.8306 19.8726 16.4726 20.2306C16.1146 20.5886 16.1146 21.169 16.4726 21.527C18.2624 23.3168 21.1638 23.3168 22.9536 21.527L28.6572 15.8234C30.447 14.0336 30.447 11.1322 28.6572 9.34237Z" fill="#9B63F8"/>
</svg>
